# xmcd
#
# Track frame offsets:
#	150
#	16803
#	34797
#	52608
#	71816
#	90076
#	115243
#	137948
#	161587
#	187262
#	205838
#	229670
#	249011
#	264629
#
# Disc length: 3766 seconds
#
# Revision: 0
# Processed by: cddbd v1.5.2PL0 Copyright (c) Steve Scherf et al.
# Submitted via: EZCDAudioConverter 8.0.2.1
#
DISCID=b30eb40e
DTITLE=Various Artist - Mùa Xuân Đầu Tiên
DYEAR=2000
DGENRE=
TTITLE0=Hạnh Nguyên - Điệp khúc mùa xuân
TTITLE1=Quang Minh - Hà Nội em và mùa xuân
TTITLE2=Bảo Yến - Mùa Xuân Đầu Tiên
TTITLE3=Mỹ Tâm - Xuân thương nhớ
TTITLE4=Bằng Kiều - Mãi cùng em ngày xanh
TTITLE5=Hồng Nhung - Cho nhau mùa đông
TTITLE6=Nhã Phương - Anh về giũa mùa xuân
TTITLE7=Quang Minh - Bởi vì em
TTITLE8=Bảo Yến - Cho em ngày nắng xanh
TTITLE9=Hạnh Nguyên - Xe và tôi
TTITLE10=Bằng Kiều - Đà lạt chiều mơ
TTITLE11=Hạnh Nguyên - Mùa xuân dịu êm
TTITLE12=Soundtrack - Khi quả bóng lăn
TTITLE13=Soundtrack - Hà Nội em và mùa xuân
EXTD=
EXTT0=
EXTT1=
EXTT2=
EXTT3=
EXTT4=
EXTT5=
EXTT6=
EXTT7=
EXTT8=
EXTT9=
EXTT10=
EXTT11=
EXTT12=
EXTT13=
PLAYORDER=
